<svg width="143" height="43" viewBox="0 0 143 43" fill="none" xmlns="http://www.w3.org/2000/svg">
<path d="M26.6998 22.3C26.6998 19.4 29.0998 17.9 29.1998 17.9C27.8998 16 25.6998 15.6 24.9998 15.6C23.1998 15.4 21.4998 16.7 20.6998 16.7C19.6998 16.7 18.3998 15.6 16.7998 15.7C14.8998 15.7 13.0998 16.8 12.0998 18.6C10.0998 22.1 11.5998 27.3 13.4998 30.2C14.4998 31.7 15.6998 33.1 17.0998 33.1C18.4998 33 19.0998 32.1 20.7998 32.1C22.4998 32.1 23.0998 33.1 24.4998 32.9C26.0998 32.9 26.9998 31.4 27.9998 30.1C29.0998 28.5 29.5998 27 29.5998 26.8C29.6998 27 26.6998 25.8 26.6998 22.3Z" fill="#4F5362"/>
<path d="M23.7998 13.8C24.5998 12.8 25.0998 11.5 24.9998 10.2C23.8998 10.2 22.4998 11 21.5998 11.9C20.8998 12.7 20.2998 14.2 20.3998 15.4C21.6998 15.5 23.0998 14.8 23.7998 13.8Z" fill="#4F5362"/>
<path d="M45.0998 29.6H40.1998L38.9998 33.1H36.7998L41.5998 20H43.7998L48.4998 33.1H46.2998L45.0998 29.6ZM40.5998 27.9H44.5998L42.6998 22.1L40.5998 27.9ZM58.6998 28.4C58.6998 31.4 57.0998 33.2 54.6998 33.2C53.3998 33.2 52.2998 32.6 51.6998 31.5V36.2H49.7998V23.5H51.6998V25.1C52.2998 24.1 53.3998 23.4 54.6998 23.4C56.9998 23.4 58.6998 25.3 58.6998 28.4ZM56.6998 28.4C56.6998 26.5 55.6998 25.1 54.1998 25.1C52.7998 25.1 51.6998 26.4 51.6998 28.4C51.6998 30.4 52.6998 31.7 54.1998 31.7C55.6998 31.5 56.6998 30.3 56.6998 28.4ZM69.1998 28.4C69.1998 31.4 67.5998 33.2 65.1998 33.2C63.8998 33.2 62.7998 32.6 62.1998 31.5V36.2H60.2998V23.5H62.0998V25.1C62.6998 24.1 63.7998 23.4 65.0998 23.4C67.4998 23.4 69.1998 25.3 69.1998 28.4ZM67.0998 28.4C67.0998 26.5 66.0998 25.1 64.5998 25.1C63.1998 25.1 62.0998 26.4 62.0998 28.4C62.0998 30.4 63.0998 31.7 64.5998 31.7C66.1998 31.5 67.0998 30.3 67.0998 28.4ZM75.9998 29.4C76.0998 30.7 77.3998 31.6 79.0998 31.6C80.7998 31.6 81.9998 30.8 81.9998 29.5C81.9998 28.5 81.2998 27.9 79.5998 27.4L77.8998 27C75.4998 26.4 74.3998 25.3 74.3998 23.5C74.3998 21.2 76.2998 19.6 79.0998 19.6C81.8998 19.6 83.7998 21.2 83.7998 23.5H81.8998C81.7998 22.2 80.6998 21.4 79.0998 21.4C77.4998 21.4 76.4998 22.2 76.4998 23.3C76.4998 24.3 77.1998 24.8 78.8998 25.2L80.2998 25.6C82.8998 26.2 83.9998 27.3 83.9998 29.2C83.9998 31.6 82.0998 33.2 78.8998 33.2C75.9998 33.2 74.0998 31.7 73.9998 29.3C74.0998 29.6 75.9998 29.4 75.9998 29.4ZM88.2998 21.3V23.6H90.0998V25.1H88.2998V30.4C88.2998 31.2 88.6998 31.6 89.4998 31.6H90.0998V33.2C89.8998 33.2 89.4998 33.3 88.9998 33.3C87.0998 33.3 86.3998 32.6 86.3998 30.8V25.1H84.9998V23.5H86.2998V21.2L88.2998 21.3ZM91.0998 28.4C91.0998 25.4 92.8998 23.6 95.5998 23.6C98.3998 23.6 100.1 25.5 100.1 28.4C100.1 31.4 98.2998 33.2 95.5998 33.2C92.8998 33.2 91.0998 31.4 91.0998 28.4ZM98.1998 28.4C98.1998 26.3 97.1998 25.1 95.6998 25.1C94.0998 25.1 93.1998 26.3 93.1998 28.4C93.1998 30.5 94.1998 31.7 95.6998 31.7C97.1998 31.6 98.1998 30.4 98.1998 28.4ZM101.8 23.5H103.6V25.1C103.8 24 104.8 23.4 105.9 23.4C106.1 23.4 106.4 23.4 106.6 23.5V25.3C106.5 25.2 106.1 25.2 105.8 25.2C104.6 25.2 103.8 26 103.8 27.4V33.1H101.9C101.8 33.1 101.8 23.5 101.8 23.5ZM115.7 30.3C115.5 32 113.8 33.2 111.6 33.2C108.8 33.2 107.1 31.4 107.1 28.4C107.1 25.4 108.8 23.4 111.6 23.4C114.2 23.4 115.9 25.2 115.9 28.1V28.8H109V29C109 30.7 110 31.7 111.5 31.7C112.6 31.7 113.4 31.2 113.7 30.4C113.7 30.3 115.7 30.3 115.7 30.3ZM109 27.4H113.8C113.8 25.9 112.8 25 111.5 25C110.1 25 109.2 25.9 109 27.4ZM40.3998 10.1C42.1998 10.1 43.3998 11.2 43.3998 13.2C43.3998 15.2 42.2998 16.3 40.3998 16.3H38.0998V10H40.3998V10.1ZM39.1998 15.5H40.3998C41.6998 15.5 42.3998 14.7 42.3998 13.2C42.3998 11.7 41.6998 10.9 40.3998 10.9H39.1998V15.5ZM44.4998 14.1C44.4998 12.5 45.2998 11.7 46.7998 11.7C48.0998 11.7 49.0998 12.7 49.0998 14.1C49.0998 15.7 48.2998 16.5 46.7998 16.5C45.2998 16.5 44.4998 15.5 44.4998 14.1ZM47.9998 14.1C47.9998 13 47.4998 12.4 46.6998 12.4C45.8998 12.4 45.3998 13 45.3998 14.1C45.3998 15.2 45.8998 15.8 46.6998 15.8C47.4998 15.6 47.9998 15 47.9998 14.1ZM54.7998 16.4H53.7998L52.7998 12.9H52.6998L51.6998 16.4H50.6998L49.3998 11.7H50.3998L51.1998 15.3H51.2998L52.2998 11.7H53.0998L54.0998 15.3H54.1998L54.9998 11.7H55.9998C56.1998 11.7 54.7998 16.4 54.7998 16.4ZM57.2998 11.7H58.0998V12.4H58.1998C58.3998 11.9 58.8998 11.6 59.5998 11.6C60.6998 11.6 61.2998 12.2 61.2998 13.4V16.4H60.2998V13.5C60.2998 12.8 59.8998 12.4 59.2998 12.4C58.5998 12.4 58.1998 12.9 58.1998 13.6V16.4H57.0998C57.2998 16.4 57.2998 11.7 57.2998 11.7ZM62.7998 9.80002H63.7998V16.5H62.7998V9.80002ZM64.9998 14.1C64.9998 12.5 65.7998 11.7 67.2998 11.7C68.5998 11.7 69.5998 12.7 69.5998 14.1C69.5998 15.7 68.7998 16.5 67.2998 16.5C65.8998 16.5 64.9998 15.5 64.9998 14.1ZM68.5998 14.1C68.5998 13 68.0998 12.4 67.2998 12.4C66.4998 12.4 65.9998 13 65.9998 14.1C65.9998 15.2 66.4998 15.8 67.2998 15.8C68.0998 15.6 68.5998 15 68.5998 14.1ZM70.4998 15C70.4998 14.2 71.0998 13.7 72.2998 13.5L73.5998 13.4V13C73.5998 12.5 73.1998 12.3 72.5998 12.3C72.0998 12.3 71.7998 12.5 71.5998 12.8H70.5998C70.6998 12 71.3998 11.5 72.4998 11.5C73.6998 11.5 74.2998 12.1 74.2998 13.1V16.4H73.4998V15.7H73.3998C73.1998 16.2 72.5998 16.4 71.9998 16.4C71.0998 16.5 70.4998 15.9 70.4998 15ZM73.4998 14.7V14.3L72.2998 14.4C71.6998 14.4 71.2998 14.6 71.2998 15.1C71.2998 15.6 71.6998 15.8 72.0998 15.8C72.9998 15.6 73.4998 15.3 73.4998 14.7ZM75.6998 14.1C75.6998 12.6 76.3998 11.7 77.5998 11.7C78.1998 11.7 78.7998 12.1 78.9998 12.5H79.0998V9.80002H80.0998V16.5H79.2998V15.8H79.1998C78.9998 16.3 78.3998 16.6 77.7998 16.6C76.3998 16.5 75.6998 15.5 75.6998 14.1ZM76.5998 14.1C76.5998 15.1 77.0998 15.7 77.8998 15.7C78.6998 15.7 79.1998 15.1 79.1998 14.1C79.1998 13.1 78.6998 12.5 77.8998 12.5C77.0998 12.4 76.5998 13 76.5998 14.1ZM83.9998 14.1C83.9998 12.5 84.7998 11.7 86.2998 11.7C87.5998 11.7 88.5998 12.7 88.5998 14.1C88.5998 15.7 87.7998 16.5 86.2998 16.5C84.7998 16.5 83.9998 15.5 83.9998 14.1ZM87.4998 14.1C87.4998 13 86.9998 12.4 86.1998 12.4C85.3998 12.4 84.8998 13 84.8998 14.1C84.8998 15.2 85.3998 15.8 86.1998 15.8C86.9998 15.6 87.4998 15 87.4998 14.1ZM89.5998 11.7H90.3998V12.4H90.4998C90.6998 11.9 91.1998 11.6 91.8998 11.6C92.9998 11.6 93.5998 12.2 93.5998 13.4V16.4H92.5998V13.5C92.5998 12.8 92.1998 12.4 91.5998 12.4C90.8998 12.4 90.4998 12.9 90.4998 13.6V16.4H89.4998L89.5998 11.7ZM98.8998 10.4V11.6H99.9998V12.4H98.8998V14.8C98.8998 15.3 99.0998 15.5 99.5998 15.5H99.9998V16.2H99.4998C98.3998 16.2 98.0998 15.8 98.0998 14.9V12.4H97.3998V11.6H98.0998V10.4H98.8998ZM101.3 9.80002H102.3V12.5H102.4C102.6 12 103.1 11.7 103.8 11.7C104.8 11.7 105.5 12.3 105.5 13.5V16.5H104.5V13.7C104.5 13 104.1 12.6 103.5 12.6C102.8 12.6 102.3 13.1 102.3 13.8V16.6H101.3C101.4 16.6 101.3 9.80002 101.3 9.80002ZM110.8 15.2C110.6 16 109.8 16.5 108.8 16.5C107.5 16.5 106.6 15.5 106.6 14.1C106.6 12.5 107.4 11.6 108.8 11.6C110.1 11.6 111 12.4 111 14V14.4H107.6C107.6 15.2 108.1 15.7 108.8 15.7C109.4 15.7 109.8 15.5 109.9 15.1C109.9 15 110.8 15.2 110.8 15.2ZM107.5 13.6H109.9C109.9 12.9 109.4 12.4 108.7 12.4C108.1 12.4 107.6 12.9 107.5 13.6Z" fill="#4F5362"/>
<path d="M137.6 1.80002C140 1.80002 142.1 3.70002 142.1 6.30002V37.8C142.1 40.2 140.2 42.3 137.6 42.3H6.0998C3.6998 42.3 1.5998 40.4 1.5998 37.8V6.20003C1.5998 3.80003 3.4998 1.70003 6.0998 1.70003H137.6M137.6 0.900024H6.0998C3.1998 0.900024 0.799805 3.30003 0.799805 6.20003V37.7C0.799805 40.6 3.1998 43 6.0998 43H137.6C140.5 43 142.9 40.6 142.9 37.7V6.20003C142.8 3.30003 140.4 0.900024 137.6 0.900024Z" fill="#4F5362"/>
</svg>
