<svg width="143" height="43" viewBox="0 0 143 43" fill="none" xmlns="http://www.w3.org/2000/svg">
<path d="M137.6 0.899979C140 0.899979 142.1 2.79998 142.1 5.39998V36.9C142.1 39.3 140.2 41.4 137.6 41.4H6.0998C3.6998 41.4 1.5998 39.5 1.5998 36.9V5.39998C1.5998 2.99998 3.4998 0.899979 6.0998 0.899979H137.6ZM137.6 0.0999756H6.0998C3.1998 0.0999756 0.799805 2.49998 0.799805 5.39998V36.9C0.799805 39.8 3.1998 42.2 6.0998 42.2H137.6C140.5 42.2 142.9 39.8 142.9 36.9V5.39998C142.8 2.49998 140.5 0.0999756 137.6 0.0999756Z" fill="#4F5362"/>
<path d="M50.7998 10.8C50.7998 11.6 50.5998 12.4 49.9998 12.9C49.3998 13.5 48.6998 13.9 47.6998 13.9C46.6998 13.9 45.9998 13.5 45.3998 12.9C44.7998 12.3 44.3998 11.5 44.3998 10.6C44.3998 9.59998 44.7998 8.89998 45.3998 8.29998C45.9998 7.69998 46.7998 7.29998 47.6998 7.29998C48.1998 7.29998 48.4998 7.39998 48.9998 7.49998C49.3998 7.59998 49.6998 7.89997 49.9998 8.19997L49.3998 8.79998C48.9998 8.29998 48.3998 8.09998 47.6998 8.09998C46.9998 8.09998 46.4998 8.29998 45.9998 8.79998C45.4998 9.29998 45.2998 9.89998 45.2998 10.6C45.2998 11.3 45.4998 11.9 45.9998 12.4C46.4998 12.9 47.0998 13.1 47.6998 13.1C48.3998 13.1 48.9998 12.9 49.4998 12.4C49.8998 12 49.9998 11.7 49.9998 11.1H47.6998V10.3H50.6998C50.7998 10.6 50.7998 10.7 50.7998 10.8ZM55.5998 8.29998H52.6998V10.4H55.3998V11H52.6998V13H55.5998V13.7H51.8998V7.39998H55.5998V8.29998ZM59.0998 13.7H58.2998V8.29998H56.4998V7.49998H60.7998V8.19997H58.9998V13.8H59.0998V13.7ZM63.8998 13.7V7.39998H64.6998V13.7H63.8998ZM68.3998 13.7H67.5998V8.29998H65.8998V7.49998H70.1998V8.19997H68.3998V13.7ZM78.3998 13C77.7998 13.6 76.9998 14 76.0998 14C75.0998 14 74.3998 13.6 73.7998 13C73.1998 12.4 72.7998 11.6 72.7998 10.7C72.7998 9.89997 73.1998 8.99998 73.7998 8.39998C74.2998 7.69998 75.0998 7.29998 75.9998 7.29998C76.9998 7.29998 77.6998 7.69998 78.2998 8.29998C78.8998 8.89998 79.2998 9.69998 79.2998 10.6C79.2998 11.5 78.9998 12.2 78.3998 13ZM74.2998 12.4C74.7998 12.9 75.3998 13.1 75.9998 13.1C76.5998 13.1 77.1998 12.9 77.6998 12.4C78.1998 11.9 78.3998 11.3 78.3998 10.6C78.3998 9.89998 78.1998 9.29998 77.6998 8.79998C77.1998 8.29998 76.5998 8.09998 75.9998 8.09998C75.3998 8.09998 74.7998 8.29998 74.2998 8.79998C73.7998 9.29998 73.5998 9.89998 73.5998 10.6C73.5998 11.3 73.7998 11.9 74.2998 12.4ZM80.4998 13.7V7.39998H81.4998L84.4998 12.4V7.39998H85.2998V13.7H84.4998L81.1998 8.49998V13.7H80.4998Z" fill="#4F5362"/>
<path d="M72.5998 23C70.0998 23 68.0998 24.9 68.0998 27.5C68.0998 30 70.0998 32 72.5998 32C75.0998 32 77.0998 30.1 77.0998 27.5C77.0998 24.8 74.9998 23 72.5998 23ZM72.5998 30.1C71.2998 30.1 70.0998 29 70.0998 27.4C70.0998 25.8 71.2998 24.7 72.5998 24.7C73.8998 24.7 75.0998 25.8 75.0998 27.4C75.1998 29 73.8998 30.1 72.5998 30.1ZM62.8998 23C60.3998 23 58.3998 24.9 58.3998 27.5C58.3998 30 60.3998 32 62.8998 32C65.3998 32 67.3998 30.1 67.3998 27.5C67.2998 24.8 65.2998 23 62.8998 23ZM62.8998 30.1C61.5998 30.1 60.3998 29 60.3998 27.4C60.3998 25.8 61.5998 24.7 62.8998 24.7C64.1998 24.7 65.3998 25.8 65.3998 27.4C65.3998 29 64.1998 30.1 62.8998 30.1ZM51.1998 24.3V26.2H55.7998C55.6998 27.3 55.2998 28 54.6998 28.6C54.0998 29.2 52.9998 30 51.1998 30C48.3998 30 46.2998 27.7 46.2998 24.9C46.2998 22.1 48.4998 19.8 51.1998 19.8C52.7998 19.8 53.8998 20.4 54.5998 21.1L55.8998 19.8C54.7998 18.9 53.1998 18 50.9998 18C47.0998 18 43.9998 21.1 43.9998 25C43.9998 28.9 47.2998 32 50.9998 32C52.9998 32 54.5998 31.3 55.7998 30.1C56.9998 28.9 57.4998 27.1 57.4998 25.6C57.4998 25.1 57.4998 24.8 57.3998 24.4L51.1998 24.3ZM98.7998 25.8C98.3998 24.8 97.3998 23 95.0998 23C92.7998 23 90.8998 24.8 90.8998 27.5C90.8998 30 92.7998 32 95.3998 32C97.3998 32 98.6998 30.8 99.0998 30.1L97.4998 29.1C96.9998 29.8 96.2998 30.3 95.2998 30.3C94.2998 30.3 93.5998 29.8 93.0998 29L99.0998 26.5L98.7998 25.8ZM92.7998 27.3C92.7998 25.6 94.0998 24.6 95.0998 24.6C95.7998 24.6 96.4998 25 96.7998 25.6L92.7998 27.3ZM87.7998 31.7H89.6998V18.5H87.7998V31.7ZM84.6998 24C84.1998 23.5 83.3998 23 82.2998 23C79.9998 23 77.9998 24.9 77.9998 27.5C77.9998 30 79.9998 32 82.2998 32C83.3998 32 84.1998 31.5 84.6998 31H84.7998V31.6C84.7998 33.3 83.7998 34.3 82.3998 34.3C81.1998 34.3 80.4998 33.5 80.0998 32.7L78.3998 33.4C78.8998 34.6 80.1998 36.1 82.3998 36.1C84.6998 36.1 86.5998 34.8 86.5998 31.4V23.3H84.7998L84.6998 24ZM82.3998 30.1C81.0998 30.1 79.8998 29 79.8998 27.4C79.8998 25.8 80.9998 24.6 82.3998 24.6C83.6998 24.6 84.7998 25.8 84.7998 27.4C84.7998 29 83.6998 30.1 82.3998 30.1ZM108.1 18.5H103.4V31.7H105.3V26.6H108.1C110.3 26.6 112.4 25 112.4 22.5C112.4 20 110.2 18.5 108.1 18.5ZM108.1 24.8H105.3V20.3H108.1C109.5 20.3 110.4 21.5 110.4 22.6C110.3 23.6 109.5 24.8 108.1 24.8ZM120.2 23C118.8 23 117.3 23.6 116.7 25.1L118.4 25.8C118.8 25.1 119.5 24.8 120.2 24.8C121.2 24.8 122.2 25.4 122.2 26.5V26.6C121.8 26.4 121.1 26.1 120.2 26.1C118.3 26.1 116.5 27.2 116.5 29.1C116.5 30.9 118.1 32 119.8 32C121.1 32 121.8 31.4 122.3 30.7H122.4V31.7H124.3V26.6C124.2 24.2 122.4 23 120.2 23ZM120 30.1C119.4 30.1 118.4 29.7 118.4 29C118.4 28 119.5 27.6 120.4 27.6C121.2 27.6 121.7 27.8 122.2 28.1C122.2 29.3 121.1 30.1 120 30.1ZM131.1 23.2L128.8 28.9H128.7L126.4 23.2H124.2L127.7 31.2L125.7 35.7H127.7L133.1 23.3H131.1V23.2ZM113.5 31.7H115.4V18.5H113.5V31.7Z" fill="#4F5362"/>
<path d="M11.8998 8.09998C11.6998 8.29998 11.3998 8.89998 11.3998 9.49998V32.7C11.3998 33.3 11.5998 33.9 11.8998 34.1L11.9998 34.2L24.9998 21.2V21L11.8998 8.09998Z" fill="url(#paint0_linear_162_88)"/>
<path d="M29.3998 25.6L25.0998 21.3V21.1L29.3998 16.8H29.4998L34.6998 19.7C36.0998 20.5 36.0998 21.9 34.6998 22.7L29.3998 25.6Z" fill="url(#paint1_linear_162_88)"/>
<path d="M29.4998 25.5L24.9998 21L11.8998 34.1C12.3998 34.6 13.1998 34.7 14.0998 34.2L29.4998 25.5Z" fill="url(#paint2_linear_162_88)"/>
<path d="M29.4998 16.7L14.0998 7.89997C13.2998 7.39997 12.3998 7.39997 11.8998 7.99997L24.9998 21.1L29.4998 16.7Z" fill="url(#paint3_linear_162_88)"/>
<path d="M29.3998 25.5L14.0998 34.2C13.2998 34.7 12.4998 34.7 12.0998 34.2L11.9998 34.3L12.0998 34.4C12.5998 34.9 13.2998 34.9 14.0998 34.4L29.3998 25.5Z" fill="black"/>
<path d="M11.8998 34.1C11.6998 33.7 11.3998 33.3 11.3998 32.7V32.8C11.3998 33.4 11.5998 34 11.8998 34.2V34.1ZM34.6998 22.5L29.3998 25.5L29.4998 25.6L34.6998 22.7C35.3998 22.3 35.7998 21.7 35.7998 21.1C35.6998 21.7 35.2998 22.1 34.6998 22.5Z" fill="black"/>
<path d="M14.0998 8.19997L34.5998 19.9C35.2998 20.3 35.6998 20.7 35.6998 21.2C35.6998 20.6 35.2998 20.1 34.5998 19.6L14.0998 7.89997C12.6998 7.09997 11.4998 7.79998 11.4998 9.49998V9.59998C11.3998 7.89998 12.6998 7.29997 14.0998 8.19997Z" fill="white"/>
<defs>
<linearGradient id="paint0_linear_162_88" x1="131.513" y1="1.97528" x2="122.933" y2="57.5531" gradientUnits="userSpaceOnUse">
<stop stop-color="#00A0FF"/>
<stop offset="0.007" stop-color="#00A1FF"/>
<stop offset="0.26" stop-color="#00BEFF"/>
<stop offset="0.512" stop-color="#00D2FF"/>
<stop offset="0.76" stop-color="#00DFFF"/>
<stop offset="1" stop-color="#00E3FF"/>
</linearGradient>
<linearGradient id="paint1_linear_162_88" x1="153.702" y1="21.0763" x2="-185.602" y2="21.0763" gradientUnits="userSpaceOnUse">
<stop stop-color="#FFE000"/>
<stop offset="0.409" stop-color="#FFBD00"/>
<stop offset="0.775" stop-color="#FFA500"/>
<stop offset="1" stop-color="#FF9C00"/>
</linearGradient>
<linearGradient id="paint2_linear_162_88" x1="123.213" y1="7.9183" x2="73.258" y2="137.528" gradientUnits="userSpaceOnUse">
<stop stop-color="#FF3A44"/>
<stop offset="1" stop-color="#C31162"/>
</linearGradient>
<linearGradient id="paint3_linear_162_88" x1="-25.4725" y1="-22.3023" x2="-3.26684" y2="35.4647" gradientUnits="userSpaceOnUse">
<stop stop-color="#32A071"/>
<stop offset="0.069" stop-color="#2DA771"/>
<stop offset="0.476" stop-color="#15CF74"/>
<stop offset="0.801" stop-color="#06E775"/>
<stop offset="1" stop-color="#00F076"/>
</linearGradient>
</defs>
</svg>
